HIERARCHY
ROOT Pelvis
{
	OFFSET 0.000000 0.941512 0.000000
	CHANNELS 6 Xposition Yposition Zposition Zrotation Yrotation Xrotation 
	JOINT Pelvis_L_Hip
	{
		OFFSET 0.000000 0.000000 0.000000
		CHANNELS 3 Zrotation Yrotation Xrotation
		JOINT L_Hip
		{
			OFFSET 0.062321 -0.080322 -0.016990
			CHANNELS 3 Zrotation Yrotation Xrotation
			JOINT L_Knee
			{
				OFFSET 0.093051 -0.381305 -0.029784
				CHANNELS 3 Zrotation Yrotation Xrotation
				JOINT L_Ankle
				{
					OFFSET -0.010371 -0.431000 -0.033614
					CHANNELS 3 Zrotation Yrotation Xrotation
					End Site #name: L_Foot
					{
						OFFSET 0.069299 -0.038670 0.119418
					}
				}
			}
		}
	}
	JOINT Pelvis_R_Hip
	{
		OFFSET 0.000000 0.000000 0.000000
		CHANNELS 3 Zrotation Yrotation Xrotation
		JOINT R_Hip
		{
			OFFSET -0.055334 -0.094904 -0.002373
			CHANNELS 3 Zrotation Yrotation Xrotation
			JOINT R_Knee
			{
				OFFSET -0.064207 -0.384370 -0.019592
				CHANNELS 3 Zrotation Yrotation Xrotation
				JOINT R_Ankle
				{
					OFFSET 0.025418 -0.419734 -0.065953
					CHANNELS 3 Zrotation Yrotation Xrotation
					End Site #name: R_Foot
					{
						OFFSET -0.057233 -0.039888 0.132134
					}
				}
			}
		}
	}
	JOINT Pelvis_Spine1
	{
		OFFSET 0.000000 0.000000 0.000000
		CHANNELS 3 Zrotation Yrotation Xrotation
		JOINT Spine1
		{
			OFFSET -0.005562 0.124093 -0.043360
			CHANNELS 3 Zrotation Yrotation Xrotation
			JOINT Spine2
			{
				OFFSET 0.012244 0.139499 0.029894
				CHANNELS 3 Zrotation Yrotation Xrotation
				JOINT Spine3
				{
					OFFSET -0.002556 0.056561 0.009225
					CHANNELS 3 Zrotation Yrotation Xrotation
					JOINT Spine3_Neck
					{
						OFFSET 0.000000 0.000000 0.000000
						CHANNELS 3 Zrotation Yrotation Xrotation
						JOINT Neck
						{
							OFFSET -0.005205 0.217920 -0.024551
							CHANNELS 3 Zrotation Yrotation Xrotation
							End Site #name: Head
							{
								OFFSET 0.002365 0.091850 0.046637
							}
						}
					}
					JOINT Spine3_L_Collar
					{
						OFFSET 0.000000 0.000000 0.000000
						CHANNELS 3 Zrotation Yrotation Xrotation
						JOINT L_Collar
						{
							OFFSET 0.072225 0.116603 -0.009480
							CHANNELS 3 Zrotation Yrotation Xrotation
							JOINT L_Shoulder
							{
								OFFSET 0.115937 -0.058643 -0.021018
								CHANNELS 3 Zrotation Yrotation Xrotation
								JOINT L_Elbow
								{
									OFFSET 0.021994 -0.254722 -0.024492
									CHANNELS 3 Zrotation Yrotation Xrotation
									End Site #name: L_Wrist
									{
										OFFSET 0.048810 -0.240214 0.103329
									}
								}
							}
						}
					}
					JOINT Spine3_R_Collar
					{
						OFFSET 0.000000 0.000000 0.000000
						CHANNELS 3 Zrotation Yrotation Xrotation
						JOINT R_Collar
						{
							OFFSET -0.073372 0.120704 -0.024611
							CHANNELS 3 Zrotation Yrotation Xrotation
							JOINT R_Shoulder
							{
								OFFSET -0.108089 -0.054969 -0.020504
								CHANNELS 3 Zrotation Yrotation Xrotation
								JOINT R_Elbow
								{
									OFFSET -0.033684 -0.260739 0.009889
									CHANNELS 3 Zrotation Yrotation Xrotation
									End Site #name: R_Wrist
									{
										OFFSET -0.067980 -0.232763 0.118463
									}
								}
							}
						}
					}
				}
			}
		}
	}
}
MOTION
Frames: 13
Frame Time: 0.041667
-3.013322 0.959535 1.629002 -3.330071 -17.508224 -2.142916 0.000000 0.000000 0.000000 -11.900839 -0.124107 -2.798423 14.065574 -4.268047 28.829870 -6.498672 -48.948192 -9.284554 0.000000 0.000000 0.000000 -6.993988 5.285334 -33.394742 3.637721 0.027335 10.708391 8.839855 1.824878 15.076502 0.000000 0.000000 0.000000 8.960287 -3.854367 15.831054 -6.997516 -0.190964 -16.210987 0.776137 -3.182683 6.991460 0.000000 0.000000 0.000000 -7.569947 5.108350 8.602986 0.000000 0.000000 0.000000 22.929543 -2.058162 0.905645 -24.665122 1.250822 -5.124974 -0.092809 -2.435615 -11.272814 0.000000 0.000000 0.000000 -24.800881 2.970737 5.472390 26.511120 0.184992 1.420451 -7.575958 -2.556774 -5.889979 
-3.037405 0.959440 1.660245 -2.769325 -16.433747 -1.762489 0.000000 0.000000 0.000000 -11.289829 0.260967 -1.628293 14.278296 -4.482533 29.582672 -8.925719 -50.269922 -6.521804 0.000000 0.000000 0.000000 -5.391534 5.655806 -33.811493 3.550824 0.310700 14.920021 9.489096 3.551810 15.155232 0.000000 0.000000 0.000000 8.443909 -3.654545 15.117438 -6.832877 -0.193170 -15.846523 0.673469 -2.519185 6.618775 0.000000 0.000000 0.000000 -8.130860 5.368177 8.278969 0.000000 0.000000 0.000000 22.716583 -1.437193 1.545635 -25.306640 1.652631 -3.925283 2.500723 0.205923 -4.839093 0.000000 0.000000 0.000000 -24.960563 3.191247 5.119767 27.220831 0.281513 1.234085 -7.733797 -2.514042 -6.498683 
-3.062107 0.960550 1.694631 -2.485813 -15.081031 -0.673611 0.000000 0.000000 0.000000 -10.354181 0.242952 -1.546629 14.475339 -4.813742 31.363965 -12.781564 -51.004318 -1.899738 0.000000 0.000000 0.000000 -2.980286 5.959193 -33.023325 1.746188 0.920648 16.572809 13.210871 7.657482 18.770975 0.000000 0.000000 0.000000 8.377077 -3.534057 13.615179 -6.678484 -0.211624 -15.703961 0.469334 -1.878947 6.196135 0.000000 0.000000 0.000000 -8.846633 5.798552 8.517126 0.000000 0.000000 0.000000 22.327225 -0.831099 2.159095 -25.596907 2.268521 -2.004347 5.445517 2.484358 1.118853 0.000000 0.000000 0.000000 -25.485390 3.549143 4.739919 28.082152 -0.023402 2.074038 -7.531561 -2.140949 -7.675681 
-3.085972 0.963768 1.732770 -2.627697 -13.730762 0.782274 0.000000 0.000000 0.000000 -9.758197 -0.066260 -2.412530 15.486066 -5.610395 34.531499 -17.887949 -50.445679 4.521559 0.000000 0.000000 0.000000 -1.406055 6.245077 -33.056952 0.916125 1.351089 18.869437 12.119997 4.438887 19.449940 0.000000 0.000000 0.000000 8.933122 -3.436820 10.859291 -6.343085 -0.166506 -14.558720 0.121592 -1.051311 5.694572 0.000000 0.000000 0.000000 -9.547732 6.213865 8.771687 0.000000 0.000000 0.000000 21.687927 0.458033 3.243766 -25.269879 2.939864 0.289662 7.145120 3.543046 4.013657 0.000000 0.000000 0.000000 -26.343385 4.212526 4.166289 28.765893 -0.477385 3.251289 -7.175099 -1.750818 -8.471667 
-3.108153 0.970758 1.773803 -3.786072 -13.077159 1.586723 0.000000 0.000000 0.000000 -8.640260 -0.356717 -3.123678 16.229894 -6.460939 38.921086 -25.108915 -47.331647 14.216776 0.000000 0.000000 0.000000 0.955491 6.594187 -32.305122 0.948335 1.678680 22.393313 10.022605 4.367054 15.975383 0.000000 0.000000 0.000000 10.233650 -3.624254 9.179547 -5.807469 -0.112620 -13.255646 0.048627 0.346644 4.475530 0.000000 0.000000 0.000000 -10.516732 6.876866 9.763179 0.000000 0.000000 0.000000 21.218682 2.537368 4.941851 -25.064830 3.687900 2.924360 7.818140 3.714071 3.292566 0.000000 0.000000 0.000000 -27.086999 5.548449 2.892599 28.568282 -1.123299 5.024410 -6.716674 -1.497015 -8.394420 
-3.129942 0.977678 1.815265 -4.763643 -13.107297 1.577093 0.000000 0.000000 0.000000 -7.282764 -1.058491 -5.146646 14.135189 -6.254295 46.496429 -31.035487 -37.343456 25.240347 0.000000 0.000000 0.000000 3.190219 6.572660 -30.147582 1.432754 1.750405 24.617879 8.079099 4.957994 12.110939 0.000000 0.000000 0.000000 10.659882 -3.679581 8.725865 -5.186796 -0.095272 -12.472981 0.516978 1.829911 3.825056 0.000000 0.000000 0.000000 -11.638817 7.500996 9.666440 0.000000 0.000000 0.000000 21.362121 5.129110 7.074634 -25.247767 4.106102 4.304499 7.796776 3.505430 1.597558 0.000000 0.000000 0.000000 -27.580661 6.827278 1.622840 27.562839 -1.344321 5.731684 -6.101192 -1.399429 -7.275554 
-3.149400 0.980879 1.851904 -5.201525 -12.492547 1.256938 0.000000 0.000000 0.000000 -5.717705 -2.544145 -10.177043 10.134805 -4.873395 56.864716 -32.439464 -24.434078 32.873493 0.000000 0.000000 0.000000 4.590031 6.017687 -27.028895 2.122482 1.525952 25.167100 5.806705 4.759150 8.169269 0.000000 0.000000 0.000000 10.078346 -3.626038 9.378597 -4.541770 -0.121735 -12.127588 1.280318 3.237682 3.384061 0.000000 0.000000 0.000000 -12.803140 7.960782 8.578808 0.000000 0.000000 0.000000 21.677107 6.631111 8.527178 -25.266489 4.265043 4.917805 7.076657 2.856793 -1.197001 0.000000 0.000000 0.000000 -28.238262 7.834524 0.509602 26.737708 -1.459821 6.160883 -6.072013 -1.509280 -6.728117 
-3.164193 0.982659 1.884746 -5.374599 -11.323665 0.419022 0.000000 0.000000 0.000000 -4.465008 -4.033046 -15.884805 5.929050 -2.688907 65.404843 -26.059637 -21.330089 26.627389 0.000000 0.000000 0.000000 5.275105 5.223971 -23.671034 2.536539 1.356344 25.703498 4.433013 5.023846 5.527517 0.000000 0.000000 0.000000 9.582630 -3.809960 11.442266 -4.111577 -0.180597 -12.373581 1.801887 4.641145 3.330063 0.000000 0.000000 0.000000 -13.601896 8.100045 7.132104 0.000000 0.000000 0.000000 20.814741 7.202846 9.051753 -24.665091 3.883416 4.050234 6.298339 2.205325 -3.457783 0.000000 0.000000 0.000000 -28.842374 8.906894 -0.818251 25.708889 -1.517856 6.441380 -6.172570 -1.592713 -6.626785 
-3.173494 0.985565 1.915988 -4.932684 -10.152070 0.074587 0.000000 0.000000 0.000000 -4.026869 -5.633572 -22.274381 0.567514 1.018159 68.174424 -13.931885 -18.213029 12.210801 0.000000 0.000000 0.000000 5.195361 4.510364 -21.043106 2.445475 1.352425 26.020900 3.309989 5.440833 3.205282 0.000000 0.000000 0.000000 8.836536 -3.839353 13.035988 -3.888601 -0.250688 -13.060229 2.059628 5.875336 3.479578 0.000000 0.000000 0.000000 -14.225504 8.283559 6.592898 0.000000 0.000000 0.000000 19.643720 7.199755 9.000399 -24.405243 3.351517 2.493908 6.299923 2.010404 -4.861496 0.000000 0.000000 0.000000 -29.485266 10.161687 -2.303274 24.981678 -1.510416 6.503962 -6.447475 -1.805749 -6.386067 
-3.180750 0.989262 1.947313 -3.984373 -8.780980 0.048181 0.000000 0.000000 0.000000 -3.494797 -6.949735 -27.725328 -4.721029 4.232872 63.341088 -4.764995 -11.456184 1.976984 0.000000 0.000000 0.000000 4.262548 3.695758 -18.280332 2.716543 1.101928 25.233812 2.342477 5.512473 1.341307 0.000000 0.000000 0.000000 7.422550 -3.523075 13.828480 -3.672990 -0.321982 -13.756650 2.356571 6.834835 3.871762 0.000000 0.000000 0.000000 -14.766046 8.463299 6.273764 0.000000 0.000000 0.000000 19.254531 6.761120 8.824444 -25.435498 2.847817 0.506775 6.672073 2.041823 -5.897353 0.000000 0.000000 0.000000 -30.232059 10.950248 -3.337246 24.686550 -1.355233 6.093888 -6.440638 -1.818838 -6.306606 
-3.186566 0.991030 1.979101 -3.315421 -7.379689 -0.071784 0.000000 0.000000 0.000000 -2.429341 -7.649338 -31.139679 -8.247284 5.010015 52.310287 0.609050 -2.086549 -2.239302 0.000000 0.000000 0.000000 3.588443 3.057711 -15.827006 3.071059 0.879700 25.228046 1.359223 5.316122 -0.453669 0.000000 0.000000 0.000000 6.200049 -3.276644 14.790736 -3.591672 -0.382936 -14.327374 2.735028 7.569446 4.269115 0.000000 0.000000 0.000000 -15.339012 8.610949 5.556134 0.000000 0.000000 0.000000 19.316470 6.563250 8.931116 -26.379269 2.429234 -1.085994 6.080834 1.410907 -8.239299 0.000000 0.000000 0.000000 -31.013900 11.369819 -4.019441 24.425254 -1.078559 5.341487 -6.158941 -1.458186 -7.161835 
-3.190857 0.988844 2.011307 -2.826737 -6.340569 0.395273 0.000000 0.000000 0.000000 -1.227853 -7.985470 -33.425600 -9.023710 3.748138 38.501289 3.832815 8.347404 -2.124604 0.000000 0.000000 0.000000 3.113822 2.711362 -14.447019 3.426540 0.740509 26.242441 0.042656 4.738798 -2.778568 0.000000 0.000000 0.000000 5.331480 -2.964331 14.384851 -3.456508 -0.318823 -12.918190 2.443965 8.193796 3.673901 0.000000 0.000000 0.000000 -15.986684 8.635803 3.740629 0.000000 0.000000 0.000000 18.764519 7.864126 9.838738 -24.845458 1.854970 -2.292980 2.996276 -0.959774 -12.451682 0.000000 0.000000 0.000000 -30.193253 10.882807 -3.868776 22.553408 -0.660863 4.273073 -4.771413 -0.118592 -9.258655 
-3.192798 0.984603 2.046220 -2.584035 -5.631462 1.114665 0.000000 0.000000 0.000000 -0.384478 -8.068080 -34.476087 -6.599635 1.684200 24.640053 4.081795 12.076928 0.068705 0.000000 0.000000 0.000000 3.165291 2.429806 -13.110832 3.080471 0.898696 27.327366 -1.025306 4.300796 -4.758519 0.000000 0.000000 0.000000 4.884249 -2.748718 13.627169 -3.724260 -0.294923 -12.620782 2.629642 8.725868 3.656711 0.000000 0.000000 0.000000 -16.885149 8.960268 2.955263 0.000000 0.000000 0.000000 18.671235 8.248391 10.199098 -24.006548 1.773969 -2.292966 1.097238 -2.736525 -15.694877 0.000000 0.000000 0.000000 -30.249938 11.474940 -4.600870 21.978248 -0.575430 4.043022 -4.135404 0.625097 -10.584490 
